<svg width="154" height="28" viewBox="0 0 154 28" fill="none" xmlns="http://www.w3.org/2000/svg">
<path d="M24.732 23.616C22.236 26.16 19.08 27.432 15.264 27.432C11.448 27.432 8.304 26.172 5.832 23.652C3.36 21.132 2.124 18.048 2.124 14.4C2.124 10.8 3.372 7.728 5.868 5.184C8.364 2.64 11.52 1.368 15.336 1.368C19.152 1.368 22.296 2.628 24.768 5.148C27.24 7.668 28.476 10.752 28.476 14.4C28.476 18 27.228 21.072 24.732 23.616ZM9.18 20.772C10.812 22.5 12.864 23.364 15.336 23.364C17.808 23.364 19.836 22.5 21.42 20.772C23.028 19.044 23.832 16.92 23.832 14.4C23.832 11.904 23.016 9.792 21.384 8.064C19.776 6.312 17.736 5.436 15.264 5.436C12.792 5.436 10.752 6.3 9.144 8.028C7.56 9.756 6.768 11.88 6.768 14.4C6.768 16.896 7.572 19.02 9.18 20.772ZM29.8659 27V1.8H39.2619C43.1979 1.8 46.4139 3 48.9099 5.4C51.4059 7.776 52.6539 10.776 52.6539 14.4C52.6539 18 51.3939 21 48.8739 23.4C46.3779 25.8 43.1739 27 39.2619 27H29.8659ZM34.2939 22.968H39.2619C41.8779 22.968 43.9899 22.176 45.5979 20.592C47.2059 18.984 48.0099 16.92 48.0099 14.4C48.0099 11.904 47.2059 9.852 45.5979 8.244C43.9899 6.636 41.8779 5.832 39.2619 5.832H34.2939V22.968ZM54.0661 27V1.8H72.7501V5.76H58.4941V12.312H71.1301V16.272H58.4941V23.04H72.9301V27H54.0661ZM80.4153 27V5.904H72.4233V1.8H92.8713V5.904H84.8793V27H80.4153ZM101.9 27.36C97.8917 27.36 94.3877 26.016 91.3877 23.328L94.0517 20.16C96.5717 22.344 99.2237 23.436 102.008 23.436C103.376 23.436 104.456 23.148 105.248 22.572C106.064 21.972 106.472 21.18 106.472 20.196C106.472 19.26 106.088 18.516 105.32 17.964C104.552 17.388 103.04 16.836 100.784 16.308C97.8557 15.612 95.7197 14.736 94.3757 13.68C93.0557 12.6 92.3957 10.956 92.3957 8.748C92.3957 6.588 93.1997 4.836 94.8077 3.492C96.4157 2.124 98.4797 1.44 101 1.44C104.456 1.44 107.504 2.496 110.144 4.608L107.768 7.956C105.44 6.228 103.16 5.364 100.928 5.364C99.6557 5.364 98.6477 5.652 97.9037 6.228C97.1837 6.804 96.8237 7.536 96.8237 8.424C96.8237 9.408 97.2197 10.176 98.0117 10.728C98.8277 11.256 100.424 11.808 102.8 12.384C105.584 13.056 107.624 13.956 108.92 15.084C110.24 16.212 110.9 17.796 110.9 19.836C110.9 22.164 110.072 24 108.416 25.344C106.76 26.688 104.588 27.36 101.9 27.36ZM118.473 27V17.064L108.465 1.8H113.685L120.741 12.96L127.869 1.8H132.945L122.937 16.956V27H118.473ZM126.734 27L137.822 1.62H141.926L153.014 27H148.334L145.778 20.916H133.862L131.27 27H126.734ZM135.482 16.992H144.158L139.802 6.912L135.482 16.992Z" fill="black"/>
<path d="M24.732 23.616L25.0889 23.9662L25.0889 23.9662L24.732 23.616ZM5.832 23.652L5.47506 24.0021L5.47506 24.0021L5.832 23.652ZM5.868 5.184L5.5111 4.83383L5.5111 4.83383L5.868 5.184ZM24.768 5.148L25.1249 4.79786L25.1249 4.79786L24.768 5.148ZM9.18 20.772L8.8116 21.1101L8.81649 21.1153L9.18 20.772ZM21.42 20.772L21.054 20.4314L21.0514 20.4341L21.42 20.772ZM21.384 8.064L21.0156 8.40212L21.0205 8.40731L21.384 8.064ZM9.144 8.028L8.77796 7.68737L8.77542 7.69014L9.144 8.028ZM24.732 23.616L24.3751 23.2658C21.9803 25.7067 18.9563 26.932 15.264 26.932V27.432V27.932C19.2037 27.932 22.4917 26.6133 25.0889 23.9662L24.732 23.616ZM15.264 27.432V26.932C11.5702 26.932 8.55879 25.7177 6.18894 23.3019L5.832 23.652L5.47506 24.0021C8.04921 26.6263 11.3258 27.932 15.264 27.932V27.432ZM5.832 23.652L6.18894 23.3019C3.81199 20.8788 2.624 17.9219 2.624 14.4H2.124H1.624C1.624 18.1741 2.90801 21.3852 5.47506 24.0021L5.832 23.652ZM2.124 14.4H2.624C2.624 10.9295 3.82165 7.98364 6.2249 5.53417L5.868 5.184L5.5111 4.83383C2.92235 7.47236 1.624 10.6705 1.624 14.4H2.124ZM5.868 5.184L6.2249 5.53417C8.61974 3.09328 11.6437 1.868 15.336 1.868V1.368V0.868C11.3963 0.868 8.10826 2.18672 5.5111 4.83383L5.868 5.184ZM15.336 1.368V1.868C19.0298 1.868 22.0412 3.08226 24.4111 5.49814L24.768 5.148L25.1249 4.79786C22.5508 2.17374 19.2742 0.868 15.336 0.868V1.368ZM24.768 5.148L24.4111 5.49814C26.788 7.92124 27.976 10.8781 27.976 14.4H28.476H28.976C28.976 10.6259 27.692 7.41476 25.1249 4.79786L24.768 5.148ZM28.476 14.4H27.976C27.976 17.8705 26.7783 20.8164 24.3751 23.2658L24.732 23.616L25.0889 23.9662C27.6777 21.3276 28.976 18.1295 28.976 14.4H28.476ZM9.18 20.772L8.81649 21.1153C10.5471 22.9477 12.7326 23.864 15.336 23.864V23.364V22.864C12.9954 22.864 11.0769 22.0523 9.54351 20.4287L9.18 20.772ZM15.336 23.364V23.864C17.9395 23.864 20.1042 22.9474 21.7886 21.1099L21.42 20.772L21.0514 20.4341C19.5678 22.0526 17.6765 22.864 15.336 22.864V23.364ZM21.42 20.772L21.786 21.1126C23.4863 19.2855 24.332 17.037 24.332 14.4H23.832H23.332C23.332 16.803 22.5697 18.8025 21.054 20.4314L21.42 20.772ZM23.832 14.4H24.332C24.332 11.7834 23.4719 9.54651 21.7475 7.72069L21.384 8.064L21.0205 8.40731C22.5601 10.0375 23.332 12.0246 23.332 14.4H23.832ZM21.384 8.064L21.7524 7.72591C20.0455 5.86621 17.8698 4.936 15.264 4.936V5.436V5.936C17.6022 5.936 19.5065 6.75779 21.0156 8.40209L21.384 8.064ZM15.264 5.436V4.936C12.6605 4.936 10.4855 5.85245 8.77797 7.68738L9.144 8.028L9.51003 8.36861C11.0185 6.74755 12.9235 5.936 15.264 5.936V5.436ZM9.144 8.028L8.77542 7.69014C7.10022 9.51763 6.268 11.7651 6.268 14.4H6.768H7.268C7.268 11.9949 8.01978 9.99437 9.51258 8.36586L9.144 8.028ZM6.768 14.4H6.268C6.268 17.0144 7.11447 19.2609 8.81163 21.1101L9.18 20.772L9.54837 20.4339C8.02953 18.7791 7.268 16.7776 7.268 14.4H6.768ZM29.8659 27H29.3659L29.8659 27.5V27ZM29.8659 1.8V1.3L29.3659 1.8H29.8659ZM48.9099 5.4L48.5634 5.76042L48.5652 5.76215L48.9099 5.4ZM48.8739 23.4L48.5291 23.0379L48.5274 23.0396L48.8739 23.4ZM34.2939 22.968H33.7939L34.2939 23.468V22.968ZM45.5979 20.592L45.9488 20.9482L45.9515 20.9456L45.5979 20.592ZM45.5979 8.244L45.9515 7.89045L45.5979 8.244ZM34.2939 5.832V5.332L33.7939 5.832H34.2939ZM29.8659 27H30.3659V1.8H29.8659H29.3659V27H29.8659ZM29.8659 1.8V2.3H39.2619V1.8V1.3H29.8659V1.8ZM39.2619 1.8V2.3C43.0878 2.3 46.1734 3.4624 48.5634 5.76042L48.9099 5.4L49.2565 5.03958C46.6544 2.5376 43.308 1.3 39.2619 1.3V1.8ZM48.9099 5.4L48.5652 5.76215C50.9565 8.03845 52.1539 10.905 52.1539 14.4H52.6539H53.1539C53.1539 10.647 51.8554 7.51355 49.2547 5.03785L48.9099 5.4ZM52.6539 14.4H52.1539C52.1539 17.8685 50.9462 20.7359 48.5291 23.0379L48.8739 23.4L49.2188 23.7621C51.8416 21.2641 53.1539 18.1315 53.1539 14.4H52.6539ZM48.8739 23.4L48.5274 23.0396C46.1368 25.3382 43.0629 26.5 39.2619 26.5V27V27.5C43.285 27.5 46.619 26.2618 49.2205 23.7604L48.8739 23.4ZM39.2619 27V26.5H29.8659V27V27.5H39.2619V27ZM34.2939 22.968V23.468H39.2619V22.968V22.468H34.2939V22.968ZM39.2619 22.968V23.468C41.9867 23.468 44.2324 22.639 45.9488 20.9482L45.5979 20.592L45.2471 20.2358C43.7475 21.713 41.7692 22.468 39.2619 22.468V22.968ZM45.5979 20.592L45.9515 20.9456C47.6638 19.2332 48.5099 17.0369 48.5099 14.4H48.0099H47.5099C47.5099 16.8031 46.7481 18.7348 45.2444 20.2384L45.5979 20.592ZM48.0099 14.4H48.5099C48.5099 11.7856 47.6629 9.60182 45.9515 7.89045L45.5979 8.244L45.2444 8.59755C46.749 10.1022 47.5099 12.0224 47.5099 14.4H48.0099ZM45.5979 8.244L45.9515 7.89045C44.2355 6.17442 41.9889 5.332 39.2619 5.332V5.832V6.332C41.767 6.332 43.7444 7.09758 45.2444 8.59755L45.5979 8.244ZM39.2619 5.832V5.332H34.2939V5.832V6.332H39.2619V5.832ZM34.2939 5.832H33.7939V22.968H34.2939H34.7939V5.832H34.2939ZM54.0661 27H53.5661L54.0661 27.5V27ZM54.0661 1.8V1.3L53.5661 1.8H54.0661ZM72.7501 1.8H73.2501L72.7501 1.3V1.8ZM72.7501 5.76V6.26L73.2501 5.76H72.7501ZM58.4941 5.76V5.26L57.9941 5.76H58.4941ZM58.4941 12.312H57.9941L58.4941 12.812V12.312ZM71.1301 12.312H71.6301L71.1301 11.812V12.312ZM71.1301 16.272V16.772L71.6301 16.272H71.1301ZM58.4941 16.272V15.772L57.9941 16.272H58.4941ZM58.4941 23.04H57.9941L58.4941 23.54V23.04ZM72.9301 23.04H73.4301L72.9301 22.54V23.04ZM72.9301 27V27.5L73.4301 27H72.9301ZM54.0661 27H54.5661V1.8H54.0661H53.5661V27H54.0661ZM54.0661 1.8V2.3H72.7501V1.8V1.3H54.0661V1.8ZM72.7501 1.8H72.2501V5.76H72.7501H73.2501V1.8H72.7501ZM72.7501 5.76V5.26H58.4941V5.76V6.26H72.7501V5.76ZM58.4941 5.76H57.9941V12.312H58.4941H58.9941V5.76H58.4941ZM58.4941 12.312V12.812H71.1301V12.312V11.812H58.4941V12.312ZM71.1301 12.312H70.6301V16.272H71.1301H71.6301V12.312H71.1301ZM71.1301 16.272V15.772H58.4941V16.272V16.772H71.1301V16.272ZM58.4941 16.272H57.9941V23.04H58.4941H58.9941V16.272H58.4941ZM58.4941 23.04V23.54H72.9301V23.04V22.54H58.4941V23.04ZM72.9301 23.04H72.4301V27H72.9301H73.4301V23.04H72.9301ZM72.9301 27V26.5H54.0661V27V27.5H72.9301V27ZM80.4153 27H79.9153L80.4153 27.5V27ZM80.4153 5.904H80.9153L80.4153 5.404V5.904ZM72.4233 5.904H71.9233L72.4233 6.404V5.904ZM72.4233 1.8V1.3L71.9233 1.8H72.4233ZM92.8713 1.8H93.3713L92.8713 1.3V1.8ZM92.8713 5.904V6.404L93.3713 5.904H92.8713ZM84.8793 5.904V5.404L84.3793 5.904H84.8793ZM84.8793 27V27.5L85.3793 27H84.8793ZM80.4153 27H80.9153V5.904H80.4153H79.9153V27H80.4153ZM80.4153 5.904V5.404H72.4233V5.904V6.404H80.4153V5.904ZM72.4233 5.904H72.9233V1.8H72.4233H71.9233V5.904H72.4233ZM72.4233 1.8V2.3H92.8713V1.8V1.3H72.4233V1.8ZM92.8713 1.8H92.3713V5.904H92.8713H93.3713V1.8H92.8713ZM92.8713 5.904V5.404H84.8793V5.904V6.404H92.8713V5.904ZM84.8793 5.904H84.3793V27H84.8793H85.3793V5.904H84.8793ZM84.8793 27V26.5H80.4153V27V27.5H84.8793V27ZM91.3877 23.328L91.005 23.0062L91.054 23.7004L91.3877 23.328ZM94.0517 20.16L94.3792 19.7822L93.669 19.8382L94.0517 20.16ZM105.248 22.572L105.542 22.9764L105.544 22.9748L105.248 22.572ZM105.32 17.964L105.02 18.3641L105.028 18.37L105.32 17.964ZM100.784 16.308L100.668 16.7944L100.67 16.7948L100.784 16.308ZM94.3757 13.68L94.059 14.0671L94.0668 14.0732L94.3757 13.68ZM94.8077 3.492L95.1284 3.87565L95.1317 3.87283L94.8077 3.492ZM110.144 4.608L110.551 4.89737L110.456 4.21756L110.144 4.608ZM107.768 7.956L107.47 8.35748L108.175 8.24537L107.768 7.956ZM97.9037 6.228L97.5976 5.83259L97.5913 5.83756L97.9037 6.228ZM98.0117 10.728L97.7258 11.1382L97.7401 11.1478L98.0117 10.728ZM102.8 12.384L102.682 12.8699L102.682 12.87L102.8 12.384ZM108.92 15.084L108.591 15.4612L108.595 15.4641L108.92 15.084ZM108.416 25.344L108.101 24.9558L108.101 24.9558L108.416 25.344ZM101.9 27.36V26.86C98.0155 26.86 94.6301 25.5619 91.7213 22.9556L91.3877 23.328L91.054 23.7004C94.1452 26.4701 97.7679 27.86 101.9 27.86V27.36ZM91.3877 23.328L91.7704 23.6498L94.4344 20.4818L94.0517 20.16L93.669 19.8382L91.005 23.0062L91.3877 23.328ZM94.0517 20.16L93.7242 20.5378C96.3163 22.7843 99.0806 23.936 102.008 23.936V23.436V22.936C99.3668 22.936 96.8271 21.9037 94.3792 19.7822L94.0517 20.16ZM102.008 23.436V23.936C103.441 23.936 104.636 23.6349 105.542 22.9764L105.248 22.572L104.954 22.1676C104.275 22.6611 103.311 22.936 102.008 22.936V23.436ZM105.248 22.572L105.544 22.9748C106.484 22.2839 106.972 21.3445 106.972 20.196H106.472H105.972C105.972 21.0155 105.644 21.6601 104.951 22.1692L105.248 22.572ZM106.472 20.196H106.972C106.972 19.0971 106.509 18.2028 105.612 17.558L105.32 17.964L105.028 18.37C105.667 18.8292 105.972 19.4229 105.972 20.196H106.472ZM105.32 17.964L105.62 17.564C104.759 16.9184 103.152 16.3487 100.898 15.8212L100.784 16.308L100.67 16.7948C102.928 17.3233 104.344 17.8576 105.02 18.364L105.32 17.964ZM100.784 16.308L100.899 15.8216C97.9961 15.1314 95.9437 14.2761 94.6846 13.2868L94.3757 13.68L94.0668 14.0732C95.4957 15.1959 97.7153 16.0926 100.668 16.7944L100.784 16.308ZM94.3757 13.68L94.6923 13.293C93.5208 12.3345 92.8957 10.8537 92.8957 8.748H92.3957H91.8957C91.8957 11.0583 92.5906 12.8655 94.0591 14.067L94.3757 13.68ZM92.3957 8.748H92.8957C92.8957 6.7309 93.638 5.12133 95.1283 3.87564L94.8077 3.492L94.487 3.10836C92.7614 4.55067 91.8957 6.4451 91.8957 8.748H92.3957ZM94.8077 3.492L95.1317 3.87283C96.6325 2.59603 98.5743 1.94 101 1.94V1.44V0.939999C98.385 0.939999 96.1989 1.65196 94.4837 3.11117L94.8077 3.492ZM101 1.44V1.94C104.345 1.94 107.282 2.95905 109.831 4.99843L110.144 4.608L110.456 4.21756C107.725 2.03295 104.566 0.939999 101 0.939999V1.44ZM110.144 4.608L109.736 4.31863L107.36 7.66662L107.768 7.956L108.175 8.24537L110.551 4.89737L110.144 4.608ZM107.768 7.956L108.066 7.55451C105.677 5.78168 103.295 4.864 100.928 4.864V5.364V5.864C103.024 5.864 105.202 6.67432 107.47 8.35748L107.768 7.956ZM100.928 5.364V4.864C99.5836 4.864 98.4556 5.16842 97.5976 5.83264L97.9037 6.228L98.2098 6.62336C98.8398 6.13558 99.7278 5.864 100.928 5.864V5.364ZM97.9037 6.228L97.5913 5.83756C96.758 6.50423 96.3237 7.37748 96.3237 8.424H96.8237H97.3237C97.3237 7.69452 97.6094 7.10376 98.216 6.61843L97.9037 6.228ZM96.8237 8.424H96.3237C96.3237 9.56775 96.7966 10.4906 97.7258 11.1382L98.0117 10.728L98.2976 10.3178C97.6428 9.86143 97.3237 9.24825 97.3237 8.424H96.8237ZM98.0117 10.728L97.7401 11.1478C98.6358 11.7274 100.31 12.2948 102.682 12.8699L102.8 12.384L102.917 11.8981C100.538 11.3212 99.0196 10.7846 98.2833 10.3082L98.0117 10.728ZM102.8 12.384L102.682 12.87C105.434 13.5343 107.384 14.4099 108.591 15.4612L108.92 15.084L109.248 14.7068C107.864 13.5021 105.733 12.5777 102.917 11.898L102.8 12.384ZM108.92 15.084L108.595 15.4641C109.784 16.4802 110.4 17.9139 110.4 19.836H110.9H111.4C111.4 17.6781 110.696 15.9438 109.245 14.7039L108.92 15.084ZM110.9 19.836H110.4C110.4 22.0291 109.628 23.7162 108.101 24.9558L108.416 25.344L108.731 25.7322C110.515 24.2838 111.4 22.2989 111.4 19.836H110.9ZM108.416 25.344L108.101 24.9558C106.555 26.2103 104.503 26.86 101.9 26.86V27.36V27.86C104.672 27.86 106.965 27.1657 108.731 25.7322L108.416 25.344ZM118.473 27H117.973L118.473 27.5V27ZM118.473 17.064H118.973L118.891 16.7898L118.473 17.064ZM108.465 1.8V1.3L108.047 2.07415L108.465 1.8ZM113.685 1.8L114.108 1.5328L113.685 1.3V1.8ZM120.741 12.96L120.319 13.2272L121.163 13.2291L120.741 12.96ZM127.869 1.8V1.3L127.448 1.53086L127.869 1.8ZM132.945 1.8L133.362 2.07552L132.945 1.3V1.8ZM122.937 16.956L122.52 16.6805L122.437 16.956H122.937ZM122.937 27V27.5L123.437 27H122.937ZM118.473 27H118.973V17.064H118.473H117.973V27H118.473ZM118.473 17.064L118.891 16.7898L108.883 1.52584L108.465 1.8L108.047 2.07415L118.055 17.3382L118.473 17.064ZM108.465 1.8V2.3H113.685V1.8V1.3H108.465V1.8ZM113.685 1.8L113.263 2.0672L120.319 13.2272L120.741 12.96L121.164 12.6928L114.108 1.5328L113.685 1.8ZM120.741 12.96L121.163 13.2291L128.291 2.06914L127.869 1.8L127.448 1.53086L120.32 12.6909L120.741 12.96ZM127.869 1.8V2.3H132.945V1.8V1.3H127.869V1.8ZM132.945 1.8L132.528 1.52448L122.52 16.6805L122.937 16.956L123.354 17.2315L133.362 2.07552L132.945 1.8ZM122.937 16.956H122.437V27H122.937H123.437V16.956H122.937ZM122.937 27V26.5H118.473V27V27.5H122.937V27ZM126.734 27L126.276 26.7998L126.734 27.5V27ZM137.822 1.62V1.12L137.364 1.41983L137.822 1.62ZM141.926 1.62L142.384 1.41983L141.926 1.12V1.62ZM153.014 27V27.5L153.472 26.7998L153.014 27ZM148.334 27L147.873 27.1937L148.334 27.5V27ZM145.778 20.916L146.239 20.7223L145.778 20.416V20.916ZM133.862 20.916V20.416L133.402 20.72L133.862 20.916ZM131.27 27V27.5L131.73 27.196L131.27 27ZM135.482 16.992L135.022 16.795L135.482 17.492V16.992ZM144.158 16.992V17.492L144.617 16.7937L144.158 16.992ZM139.802 6.912L140.261 6.71366L139.342 6.71504L139.802 6.912ZM126.734 27L127.192 27.2002L138.28 1.82017L137.822 1.62L137.364 1.41983L126.276 26.7998L126.734 27ZM137.822 1.62V2.12H141.926V1.62V1.12H137.822V1.62ZM141.926 1.62L141.468 1.82017L152.556 27.2002L153.014 27L153.472 26.7998L142.384 1.41983L141.926 1.62ZM153.014 27V26.5H148.334V27V27.5H153.014V27ZM148.334 27L148.795 26.8063L146.239 20.7223L145.778 20.916L145.317 21.1097L147.873 27.1937L148.334 27ZM145.778 20.916V20.416H133.862V20.916V21.416H145.778V20.916ZM133.862 20.916L133.402 20.72L130.81 26.804L131.27 27L131.73 27.196L134.322 21.112L133.862 20.916ZM131.27 27V26.5H126.734V27V27.5H131.27V27ZM135.482 16.992V17.492H144.158V16.992V16.492H135.482V16.992ZM144.158 16.992L144.617 16.7937L140.261 6.71366L139.802 6.912L139.343 7.11034L143.699 17.1903L144.158 16.992ZM139.802 6.912L139.342 6.71504L135.022 16.795L135.482 16.992L135.942 17.189L140.262 7.10896L139.802 6.912Z" fill="black"/>
</svg>
