<svg width="154" height="29" viewBox="0 0 154 29" fill="none" xmlns="http://www.w3.org/2000/svg">
<mask id="path-1-outside-1_2005_147" maskUnits="userSpaceOnUse" x="0" y="0" width="154" height="29" fill="black">
<rect fill="white" width="154" height="29"/>
<path d="M23.732 23.616C21.236 26.16 18.08 27.432 14.264 27.432C10.448 27.432 7.304 26.172 4.832 23.652C2.36 21.132 1.124 18.048 1.124 14.4C1.124 10.8 2.372 7.728 4.868 5.184C7.364 2.64 10.52 1.368 14.336 1.368C18.152 1.368 21.296 2.628 23.768 5.148C26.24 7.668 27.476 10.752 27.476 14.4C27.476 18 26.228 21.072 23.732 23.616ZM8.18 20.772C9.812 22.5 11.864 23.364 14.336 23.364C16.808 23.364 18.836 22.5 20.42 20.772C22.028 19.044 22.832 16.92 22.832 14.4C22.832 11.904 22.016 9.792 20.384 8.064C18.776 6.312 16.736 5.436 14.264 5.436C11.792 5.436 9.752 6.3 8.144 8.028C6.56 9.756 5.768 11.88 5.768 14.4C5.768 16.896 6.572 19.02 8.18 20.772ZM28.8659 27V1.8H38.2619C42.1979 1.8 45.4139 3 47.9099 5.4C50.4059 7.776 51.6539 10.776 51.6539 14.4C51.6539 18 50.3939 21 47.8739 23.4C45.3779 25.8 42.1739 27 38.2619 27H28.8659ZM33.2939 22.968H38.2619C40.8779 22.968 42.9899 22.176 44.5979 20.592C46.2059 18.984 47.0099 16.92 47.0099 14.4C47.0099 11.904 46.2059 9.852 44.5979 8.244C42.9899 6.636 40.8779 5.832 38.2619 5.832H33.2939V22.968ZM53.0661 27V1.8H71.7501V5.76H57.4941V12.312H70.1301V16.272H57.4941V23.04H71.9301V27H53.0661ZM79.4153 27V5.904H71.4233V1.8H91.8713V5.904H83.8793V27H79.4153ZM100.9 27.36C96.8917 27.36 93.3877 26.016 90.3877 23.328L93.0517 20.16C95.5717 22.344 98.2237 23.436 101.008 23.436C102.376 23.436 103.456 23.148 104.248 22.572C105.064 21.972 105.472 21.18 105.472 20.196C105.472 19.26 105.088 18.516 104.32 17.964C103.552 17.388 102.04 16.836 99.7837 16.308C96.8557 15.612 94.7197 14.736 93.3757 13.68C92.0557 12.6 91.3957 10.956 91.3957 8.748C91.3957 6.588 92.1997 4.836 93.8077 3.492C95.4157 2.124 97.4797 1.44 99.9997 1.44C103.456 1.44 106.504 2.496 109.144 4.608L106.768 7.956C104.44 6.228 102.16 5.364 99.9277 5.364C98.6557 5.364 97.6477 5.652 96.9037 6.228C96.1837 6.804 95.8237 7.536 95.8237 8.424C95.8237 9.408 96.2197 10.176 97.0117 10.728C97.8277 11.256 99.4237 11.808 101.8 12.384C104.584 13.056 106.624 13.956 107.92 15.084C109.24 16.212 109.9 17.796 109.9 19.836C109.9 22.164 109.072 24 107.416 25.344C105.76 26.688 103.588 27.36 100.9 27.36ZM117.473 27V17.064L107.465 1.8H112.685L119.741 12.96L126.869 1.8H131.945L121.937 16.956V27H117.473ZM125.734 27L136.822 1.62H140.926L152.014 27H147.334L144.778 20.916H132.862L130.27 27H125.734ZM134.482 16.992H143.158L138.802 6.912L134.482 16.992Z"/>
</mask>
<path d="M23.732 23.616C21.236 26.16 18.08 27.432 14.264 27.432C10.448 27.432 7.304 26.172 4.832 23.652C2.36 21.132 1.124 18.048 1.124 14.4C1.124 10.8 2.372 7.728 4.868 5.184C7.364 2.64 10.52 1.368 14.336 1.368C18.152 1.368 21.296 2.628 23.768 5.148C26.24 7.668 27.476 10.752 27.476 14.4C27.476 18 26.228 21.072 23.732 23.616ZM8.18 20.772C9.812 22.5 11.864 23.364 14.336 23.364C16.808 23.364 18.836 22.5 20.42 20.772C22.028 19.044 22.832 16.92 22.832 14.4C22.832 11.904 22.016 9.792 20.384 8.064C18.776 6.312 16.736 5.436 14.264 5.436C11.792 5.436 9.752 6.3 8.144 8.028C6.56 9.756 5.768 11.88 5.768 14.4C5.768 16.896 6.572 19.02 8.18 20.772ZM28.8659 27V1.8H38.2619C42.1979 1.8 45.4139 3 47.9099 5.4C50.4059 7.776 51.6539 10.776 51.6539 14.4C51.6539 18 50.3939 21 47.8739 23.4C45.3779 25.8 42.1739 27 38.2619 27H28.8659ZM33.2939 22.968H38.2619C40.8779 22.968 42.9899 22.176 44.5979 20.592C46.2059 18.984 47.0099 16.92 47.0099 14.4C47.0099 11.904 46.2059 9.852 44.5979 8.244C42.9899 6.636 40.8779 5.832 38.2619 5.832H33.2939V22.968ZM53.0661 27V1.8H71.7501V5.76H57.4941V12.312H70.1301V16.272H57.4941V23.04H71.9301V27H53.0661ZM79.4153 27V5.904H71.4233V1.8H91.8713V5.904H83.8793V27H79.4153ZM100.9 27.36C96.8917 27.36 93.3877 26.016 90.3877 23.328L93.0517 20.16C95.5717 22.344 98.2237 23.436 101.008 23.436C102.376 23.436 103.456 23.148 104.248 22.572C105.064 21.972 105.472 21.18 105.472 20.196C105.472 19.26 105.088 18.516 104.32 17.964C103.552 17.388 102.04 16.836 99.7837 16.308C96.8557 15.612 94.7197 14.736 93.3757 13.68C92.0557 12.6 91.3957 10.956 91.3957 8.748C91.3957 6.588 92.1997 4.836 93.8077 3.492C95.4157 2.124 97.4797 1.44 99.9997 1.44C103.456 1.44 106.504 2.496 109.144 4.608L106.768 7.956C104.44 6.228 102.16 5.364 99.9277 5.364C98.6557 5.364 97.6477 5.652 96.9037 6.228C96.1837 6.804 95.8237 7.536 95.8237 8.424C95.8237 9.408 96.2197 10.176 97.0117 10.728C97.8277 11.256 99.4237 11.808 101.8 12.384C104.584 13.056 106.624 13.956 107.92 15.084C109.24 16.212 109.9 17.796 109.9 19.836C109.9 22.164 109.072 24 107.416 25.344C105.76 26.688 103.588 27.36 100.9 27.36ZM117.473 27V17.064L107.465 1.8H112.685L119.741 12.96L126.869 1.8H131.945L121.937 16.956V27H117.473ZM125.734 27L136.822 1.62H140.926L152.014 27H147.334L144.778 20.916H132.862L130.27 27H125.734ZM134.482 16.992H143.158L138.802 6.912L134.482 16.992Z" fill="white"/>
<path d="M23.732 23.616L24.4458 24.3163L24.4458 24.3163L23.732 23.616ZM4.832 23.652L4.11813 24.3523L4.11813 24.3523L4.832 23.652ZM4.868 5.184L4.15419 4.48366L4.15419 4.48366L4.868 5.184ZM23.768 5.148L24.4819 4.44772L24.4819 4.44772L23.768 5.148ZM8.18 20.772L7.44327 21.4482L7.44809 21.4534L7.45299 21.4586L8.18 20.772ZM20.42 20.772L19.6879 20.0907L19.6828 20.0963L20.42 20.772ZM20.384 8.064L19.6473 8.74018L19.6521 8.74544L19.657 8.75062L20.384 8.064ZM8.144 8.028L7.41191 7.34675L7.40685 7.35227L8.144 8.028ZM23.732 23.616L23.0182 22.9157C20.7245 25.2534 17.8326 26.432 14.264 26.432V27.432V28.432C18.3274 28.432 21.7475 27.0666 24.4458 24.3163L23.732 23.616ZM14.264 27.432V26.432C10.6925 26.432 7.81359 25.2635 5.54587 22.9517L4.832 23.652L4.11813 24.3523C6.79441 27.0805 10.2035 28.432 14.264 28.432V27.432ZM4.832 23.652L5.54587 22.9517C3.26398 20.6255 2.124 17.7959 2.124 14.4H1.124H0.124C0.124 18.3001 1.45602 21.6385 4.11813 24.3523L4.832 23.652ZM1.124 14.4H2.124C2.124 11.059 3.27131 8.23927 5.58181 5.88434L4.868 5.184L4.15419 4.48366C1.47269 7.21673 0.124 10.541 0.124 14.4H1.124ZM4.868 5.184L5.58181 5.88434C7.87549 3.54655 10.7674 2.368 14.336 2.368V1.368V0.368C10.2726 0.368 6.85252 1.73344 4.15419 4.48366L4.868 5.184ZM14.336 1.368V2.368C17.9075 2.368 20.7864 3.53653 23.0541 5.84827L23.768 5.148L24.4819 4.44772C21.8056 1.71947 18.3965 0.368 14.336 0.368V1.368ZM23.768 5.148L23.0541 5.84827C25.336 8.17447 26.476 11.0041 26.476 14.4H27.476H28.476C28.476 10.4999 27.144 7.16152 24.4819 4.44772L23.768 5.148ZM27.476 14.4H26.476C26.476 17.741 25.3287 20.5607 23.0182 22.9157L23.732 23.616L24.4458 24.3163C27.1273 21.5833 28.476 18.259 28.476 14.4H27.476ZM8.18 20.772L7.45299 21.4586C9.28225 23.3955 11.6013 24.364 14.336 24.364V23.364V22.364C12.1267 22.364 10.3418 21.6045 8.90701 20.0854L8.18 20.772ZM14.336 23.364V24.364C17.0711 24.364 19.3724 23.3947 21.1572 21.4477L20.42 20.772L19.6828 20.0963C18.2996 21.6053 16.5449 22.364 14.336 22.364V23.364ZM20.42 20.772L21.1521 21.4532C22.9446 19.5269 23.832 17.1541 23.832 14.4H22.832H21.832C21.832 16.6859 21.1114 18.5611 19.6879 20.0908L20.42 20.772ZM22.832 14.4H23.832C23.832 11.6628 22.9278 9.30102 21.111 7.37738L20.384 8.064L19.657 8.75062C21.1042 10.283 21.832 12.1452 21.832 14.4H22.832ZM20.384 8.064L21.1207 7.38782C19.315 5.42042 17.0036 4.436 14.264 4.436V5.436V6.436C16.4684 6.436 18.237 7.20358 19.6473 8.74018L20.384 8.064ZM14.264 5.436V4.436C11.5291 4.436 9.21895 5.4049 7.41193 7.34677L8.144 8.028L8.87607 8.70923C10.285 7.1951 12.0549 6.436 14.264 6.436V5.436ZM8.144 8.028L7.40685 7.35227C5.64044 9.27927 4.768 11.6503 4.768 14.4H5.768H6.768C6.768 12.1097 7.47956 10.2327 8.88115 8.70372L8.144 8.028ZM5.768 14.4H4.768C4.768 17.1328 5.65694 19.5019 7.44327 21.4482L8.18 20.772L8.91674 20.0958C7.48706 18.5381 6.768 16.6592 6.768 14.4H5.768ZM28.8659 27H27.8659V28H28.8659V27ZM28.8659 1.8V0.799998H27.8659V1.8H28.8659ZM47.9099 5.4L47.2168 6.12084L47.2205 6.1243L47.9099 5.4ZM47.8739 23.4L47.1843 22.6759L47.1808 22.6792L47.8739 23.4ZM33.2939 22.968H32.2939V23.968H33.2939V22.968ZM44.5979 20.592L45.2997 21.3044L45.305 21.2991L44.5979 20.592ZM44.5979 8.244L45.305 7.53689L44.5979 8.244ZM33.2939 5.832V4.832H32.2939V5.832H33.2939ZM28.8659 27H29.8659V1.8H28.8659H27.8659V27H28.8659ZM28.8659 1.8V2.8H38.2619V1.8V0.799998H28.8659V1.8ZM38.2619 1.8V2.8C41.9777 2.8 44.933 3.92479 47.2168 6.12083L47.9099 5.4L48.603 4.67917C45.8949 2.0752 42.4182 0.799998 38.2619 0.799998V1.8ZM47.9099 5.4L47.2205 6.1243C49.507 8.30089 50.6539 11.0339 50.6539 14.4H51.6539H52.6539C52.6539 10.5181 51.3049 7.2511 48.5994 4.6757L47.9099 5.4ZM51.6539 14.4H50.6539C50.6539 17.7369 49.4985 20.4718 47.1843 22.6759L47.8739 23.4L48.5636 24.1241C51.2893 21.5282 52.6539 18.2631 52.6539 14.4H51.6539ZM47.8739 23.4L47.1808 22.6792C44.8958 24.8763 41.9518 26 38.2619 26V27V28C42.396 28 45.8601 26.7237 48.567 24.1208L47.8739 23.4ZM38.2619 27V26H28.8659V27V28H38.2619V27ZM33.2939 22.968V23.968H38.2619V22.968V21.968H33.2939V22.968ZM38.2619 22.968V23.968C41.0955 23.968 43.4748 23.1021 45.2997 21.3044L44.5979 20.592L43.8962 19.8796C42.5051 21.2499 40.6604 21.968 38.2619 21.968V22.968ZM44.5979 20.592L45.305 21.2991C47.1217 19.4824 48.0099 17.1538 48.0099 14.4H47.0099H46.0099C46.0099 16.6862 45.2902 18.4856 43.8908 19.8849L44.5979 20.592ZM47.0099 14.4H48.0099C48.0099 11.6672 47.1198 9.35164 45.305 7.53689L44.5979 8.244L43.8908 8.95111C45.2921 10.3524 46.0099 12.1408 46.0099 14.4H47.0099ZM44.5979 8.244L45.305 7.53689C43.481 5.71284 41.0999 4.832 38.2619 4.832V5.832V6.832C40.656 6.832 42.4989 7.55916 43.8908 8.95111L44.5979 8.244ZM38.2619 5.832V4.832H33.2939V5.832V6.832H38.2619V5.832ZM33.2939 5.832H32.2939V22.968H33.2939H34.2939V5.832H33.2939ZM53.0661 27H52.0661V28H53.0661V27ZM53.0661 1.8V0.799998H52.0661V1.8H53.0661ZM71.7501 1.8H72.7501V0.799998H71.7501V1.8ZM71.7501 5.76V6.76H72.7501V5.76H71.7501ZM57.4941 5.76V4.76H56.4941V5.76H57.4941ZM57.4941 12.312H56.4941V13.312H57.4941V12.312ZM70.1301 12.312H71.1301V11.312H70.1301V12.312ZM70.1301 16.272V17.272H71.1301V16.272H70.1301ZM57.4941 16.272V15.272H56.4941V16.272H57.4941ZM57.4941 23.04H56.4941V24.04H57.4941V23.04ZM71.9301 23.04H72.9301V22.04H71.9301V23.04ZM71.9301 27V28H72.9301V27H71.9301ZM53.0661 27H54.0661V1.8H53.0661H52.0661V27H53.0661ZM53.0661 1.8V2.8H71.7501V1.8V0.799998H53.0661V1.8ZM71.7501 1.8H70.7501V5.76H71.7501H72.7501V1.8H71.7501ZM71.7501 5.76V4.76H57.4941V5.76V6.76H71.7501V5.76ZM57.4941 5.76H56.4941V12.312H57.4941H58.4941V5.76H57.4941ZM57.4941 12.312V13.312H70.1301V12.312V11.312H57.4941V12.312ZM70.1301 12.312H69.1301V16.272H70.1301H71.1301V12.312H70.1301ZM70.1301 16.272V15.272H57.4941V16.272V17.272H70.1301V16.272ZM57.4941 16.272H56.4941V23.04H57.4941H58.4941V16.272H57.4941ZM57.4941 23.04V24.04H71.9301V23.04V22.04H57.4941V23.04ZM71.9301 23.04H70.9301V27H71.9301H72.9301V23.04H71.9301ZM71.9301 27V26H53.0661V27V28H71.9301V27ZM79.4153 27H78.4153V28H79.4153V27ZM79.4153 5.904H80.4153V4.904H79.4153V5.904ZM71.4233 5.904H70.4233V6.904H71.4233V5.904ZM71.4233 1.8V0.799998H70.4233V1.8H71.4233ZM91.8713 1.8H92.8713V0.799998H91.8713V1.8ZM91.8713 5.904V6.904H92.8713V5.904H91.8713ZM83.8793 5.904V4.904H82.8793V5.904H83.8793ZM83.8793 27V28H84.8793V27H83.8793ZM79.4153 27H80.4153V5.904H79.4153H78.4153V27H79.4153ZM79.4153 5.904V4.904H71.4233V5.904V6.904H79.4153V5.904ZM71.4233 5.904H72.4233V1.8H71.4233H70.4233V5.904H71.4233ZM71.4233 1.8V2.8H91.8713V1.8V0.799998H71.4233V1.8ZM91.8713 1.8H90.8713V5.904H91.8713H92.8713V1.8H91.8713ZM91.8713 5.904V4.904H83.8793V5.904V6.904H91.8713V5.904ZM83.8793 5.904H82.8793V27H83.8793H84.8793V5.904H83.8793ZM83.8793 27V26H79.4153V27V28H83.8793V27ZM90.3877 23.328L89.6223 22.6844L88.9986 23.4261L89.7204 24.0728L90.3877 23.328ZM93.0517 20.16L93.7066 19.4043L92.9396 18.7395L92.2863 19.5164L93.0517 20.16ZM104.248 22.572L104.836 23.3807L104.84 23.3777L104.248 22.572ZM104.32 17.964L103.72 18.764L103.728 18.7701L103.736 18.776L104.32 17.964ZM99.7837 16.308L99.5524 17.2809L99.5558 17.2817L99.7837 16.308ZM93.3757 13.68L92.7425 14.454L92.7501 14.4602L92.7579 14.4663L93.3757 13.68ZM93.8077 3.492L94.449 4.25931L94.4557 4.25366L93.8077 3.492ZM109.144 4.608L109.959 5.18675L110.506 4.41687L109.768 3.82713L109.144 4.608ZM106.768 7.956L106.172 8.75897L106.992 9.36785L107.583 8.53475L106.768 7.956ZM96.9037 6.228L96.2915 5.43728L96.2852 5.44215L96.279 5.44713L96.9037 6.228ZM97.0117 10.728L96.4399 11.5484L96.454 11.5582L96.4684 11.5676L97.0117 10.728ZM101.8 12.384L101.564 13.3558L101.565 13.3561L101.8 12.384ZM107.92 15.084L107.263 15.8383L107.27 15.8442L107.92 15.084ZM107.416 25.344L106.786 24.5675L106.786 24.5675L107.416 25.344ZM100.9 27.36V26.36C97.1393 26.36 93.8726 25.1078 91.055 22.5832L90.3877 23.328L89.7204 24.0728C92.9028 26.9242 96.6441 28.36 100.9 28.36V27.36ZM90.3877 23.328L91.1531 23.9716L93.8171 20.8036L93.0517 20.16L92.2863 19.5164L89.6223 22.6844L90.3877 23.328ZM93.0517 20.16L92.3968 20.9157C95.0609 23.2246 97.9375 24.436 101.008 24.436V23.436V22.436C98.5099 22.436 96.0825 21.4634 93.7066 19.4043L93.0517 20.16ZM101.008 23.436V24.436C102.505 24.436 103.817 24.1217 104.836 23.3807L104.248 22.572L103.66 21.7633C103.094 22.1743 102.246 22.436 101.008 22.436V23.436ZM104.248 22.572L104.84 23.3777C105.903 22.5957 106.472 21.5089 106.472 20.196H105.472H104.472C104.472 20.8511 104.224 21.3483 103.655 21.7663L104.248 22.572ZM105.472 20.196H106.472C106.472 18.9341 105.929 17.8895 104.903 17.152L104.32 17.964L103.736 18.776C104.246 19.1425 104.472 19.5859 104.472 20.196H105.472ZM104.32 17.964L104.92 17.164C103.966 16.4489 102.264 15.8614 100.012 15.3343L99.7837 16.308L99.5558 17.2817C101.816 17.8106 103.137 18.3271 103.72 18.764L104.32 17.964ZM99.7837 16.308L100.015 15.3351C97.1365 14.6509 95.1677 13.8163 93.9935 12.8937L93.3757 13.68L92.7579 14.4663C94.2716 15.6557 96.5749 16.5731 99.5524 17.2809L99.7837 16.308ZM93.3757 13.68L94.0089 12.906C92.986 12.0691 92.3957 10.7514 92.3957 8.748H91.3957H90.3957C90.3957 11.1606 91.1254 13.1309 92.7425 14.454L93.3757 13.68ZM91.3957 8.748H92.3957C92.3957 6.87379 93.0762 5.40667 94.449 4.25928L93.8077 3.492L93.1664 2.72472C91.3231 4.26533 90.3957 6.30221 90.3957 8.748H91.3957ZM93.8077 3.492L94.4557 4.25366C95.8493 3.06807 97.669 2.44 99.9997 2.44V1.44V0.439999C97.2904 0.439999 94.9821 1.17993 93.1597 2.73034L93.8077 3.492ZM99.9997 1.44V2.44C103.234 2.44 106.061 3.4221 108.519 5.38887L109.144 4.608L109.768 3.82713C106.947 1.56989 103.677 0.439999 99.9997 0.439999V1.44ZM109.144 4.608L108.328 4.02925L105.952 7.37725L106.768 7.956L107.583 8.53475L109.959 5.18675L109.144 4.608ZM106.768 7.956L107.364 7.15303C104.915 5.33536 102.431 4.364 99.9277 4.364V5.364V6.364C101.889 6.364 103.964 7.12064 106.172 8.75897L106.768 7.956ZM99.9277 5.364V4.364C98.5114 4.364 97.2634 4.68484 96.2915 5.43728L96.9037 6.228L97.5159 7.01872C98.032 6.61916 98.7999 6.364 99.9277 6.364V5.364ZM96.9037 6.228L96.279 5.44713C95.3323 6.20447 94.8237 7.21897 94.8237 8.424H95.8237H96.8237C96.8237 7.85303 97.0351 7.40353 97.5284 7.00887L96.9037 6.228ZM95.8237 8.424H94.8237C94.8237 9.7275 95.3735 10.8051 96.4399 11.5484L97.0117 10.728L97.5835 9.9076C97.0659 9.54686 96.8237 9.0885 96.8237 8.424H95.8237ZM97.0117 10.728L96.4684 11.5676C97.4439 12.1987 99.1955 12.7816 101.564 13.3558L101.8 12.384L102.035 11.4121C99.6519 10.8344 98.2115 10.3133 97.5549 9.88843L97.0117 10.728ZM101.8 12.384L101.565 13.3561C104.285 14.0125 106.144 14.8638 107.263 15.8383L107.92 15.084L108.576 14.3297C107.104 13.0482 104.883 12.0995 102.034 11.4119L101.8 12.384ZM107.92 15.084L107.27 15.8442C108.328 16.7483 108.9 18.0319 108.9 19.836H109.9H110.9C110.9 17.5601 110.151 15.6757 108.569 14.3238L107.92 15.084ZM109.9 19.836H108.9C108.9 21.8941 108.184 23.4324 106.786 24.5675L107.416 25.344L108.046 26.1205C109.959 24.5676 110.9 22.4339 110.9 19.836H109.9ZM107.416 25.344L106.786 24.5675C105.35 25.7326 103.419 26.36 100.9 26.36V27.36V28.36C103.756 28.36 106.169 27.6434 108.046 26.1205L107.416 25.344ZM117.473 27H116.473V28H117.473V27ZM117.473 17.064H118.473V16.7654L118.309 16.5157L117.473 17.064ZM107.465 1.8V0.799998H105.614L106.629 2.34831L107.465 1.8ZM112.685 1.8L113.53 1.2656L113.236 0.799998H112.685V1.8ZM119.741 12.96L118.896 13.4944L119.737 14.8245L120.584 13.4983L119.741 12.96ZM126.869 1.8V0.799998H126.321L126.026 1.26172L126.869 1.8ZM131.945 1.8L132.78 2.35103L133.804 0.799998H131.945V1.8ZM121.937 16.956L121.103 16.405L120.937 16.6556V16.956H121.937ZM121.937 27V28H122.937V27H121.937ZM117.473 27H118.473V17.064H117.473H116.473V27H117.473ZM117.473 17.064L118.309 16.5157L108.301 1.25169L107.465 1.8L106.629 2.34831L116.637 17.6123L117.473 17.064ZM107.465 1.8V2.8H112.685V1.8V0.799998H107.465V1.8ZM112.685 1.8L111.84 2.3344L118.896 13.4944L119.741 12.96L120.586 12.4256L113.53 1.2656L112.685 1.8ZM119.741 12.96L120.584 13.4983L127.712 2.33828L126.869 1.8L126.026 1.26172L118.898 12.4217L119.741 12.96ZM126.869 1.8V2.8H131.945V1.8V0.799998H126.869V1.8ZM131.945 1.8L131.111 1.24896L121.103 16.405L121.937 16.956L122.772 17.507L132.78 2.35103L131.945 1.8ZM121.937 16.956H120.937V27H121.937H122.937V16.956H121.937ZM121.937 27V26H117.473V27V28H121.937V27ZM125.734 27L124.818 26.5997L124.206 28H125.734V27ZM136.822 1.62V0.619998H136.168L135.906 1.21966L136.822 1.62ZM140.926 1.62L141.842 1.21966L141.58 0.619998H140.926V1.62ZM152.014 27V28H153.542L152.93 26.5997L152.014 27ZM147.334 27L146.412 27.3873L146.67 28H147.334V27ZM144.778 20.916L145.7 20.5287L145.443 19.916H144.778V20.916ZM132.862 20.916V19.916H132.201L131.942 20.5241L132.862 20.916ZM130.27 27V28H130.931L131.19 27.3919L130.27 27ZM134.482 16.992L133.563 16.5981L132.966 17.992H134.482V16.992ZM143.158 16.992V17.992H144.68L144.076 16.5953L143.158 16.992ZM138.802 6.912L139.72 6.51531L138.798 4.3823L137.883 6.51808L138.802 6.912ZM125.734 27L126.65 27.4003L137.738 2.02034L136.822 1.62L135.906 1.21966L124.818 26.5997L125.734 27ZM136.822 1.62V2.62H140.926V1.62V0.619998H136.822V1.62ZM140.926 1.62L140.01 2.02034L151.098 27.4003L152.014 27L152.93 26.5997L141.842 1.21966L140.926 1.62ZM152.014 27V26H147.334V27V28H152.014V27ZM147.334 27L148.256 26.6127L145.7 20.5287L144.778 20.916L143.856 21.3033L146.412 27.3873L147.334 27ZM144.778 20.916V19.916H132.862V20.916V21.916H144.778V20.916ZM132.862 20.916L131.942 20.5241L129.35 26.6081L130.27 27L131.19 27.3919L133.782 21.3079L132.862 20.916ZM130.27 27V26H125.734V27V28H130.27V27ZM134.482 16.992V17.992H143.158V16.992V15.992H134.482V16.992ZM143.158 16.992L144.076 16.5953L139.72 6.51531L138.802 6.912L137.884 7.30869L142.24 17.3887L143.158 16.992ZM138.802 6.912L137.883 6.51808L133.563 16.5981L134.482 16.992L135.401 17.3859L139.721 7.30592L138.802 6.912Z" fill="black" mask="url(#path-1-outside-1_2005_147)"/>
</svg>
