<svg width="155" height="29" viewBox="0 0 155 29" fill="none" xmlns="http://www.w3.org/2000/svg">
<mask id="path-1-outside-1_134_94" maskUnits="userSpaceOnUse" x="1" y="0" width="154" height="29" fill="black">
<rect fill="white" x="1" width="154" height="29"/>
<path d="M24.732 23.616C22.236 26.16 19.08 27.432 15.264 27.432C11.448 27.432 8.304 26.172 5.832 23.652C3.36 21.132 2.124 18.048 2.124 14.4C2.124 10.8 3.372 7.728 5.868 5.184C8.364 2.64 11.52 1.368 15.336 1.368C19.152 1.368 22.296 2.628 24.768 5.148C27.24 7.668 28.476 10.752 28.476 14.4C28.476 18 27.228 21.072 24.732 23.616ZM9.18 20.772C10.812 22.5 12.864 23.364 15.336 23.364C17.808 23.364 19.836 22.5 21.42 20.772C23.028 19.044 23.832 16.92 23.832 14.4C23.832 11.904 23.016 9.792 21.384 8.064C19.776 6.312 17.736 5.436 15.264 5.436C12.792 5.436 10.752 6.3 9.144 8.028C7.56 9.756 6.768 11.88 6.768 14.4C6.768 16.896 7.572 19.02 9.18 20.772ZM29.8659 27V1.8H39.2619C43.1979 1.8 46.4139 3 48.9099 5.4C51.4059 7.776 52.6539 10.776 52.6539 14.4C52.6539 18 51.3939 21 48.8739 23.4C46.3779 25.8 43.1739 27 39.2619 27H29.8659ZM34.2939 22.968H39.2619C41.8779 22.968 43.9899 22.176 45.5979 20.592C47.2059 18.984 48.0099 16.92 48.0099 14.4C48.0099 11.904 47.2059 9.852 45.5979 8.244C43.9899 6.636 41.8779 5.832 39.2619 5.832H34.2939V22.968ZM54.0661 27V1.8H72.7501V5.76H58.4941V12.312H71.1301V16.272H58.4941V23.04H72.9301V27H54.0661ZM80.4153 27V5.904H72.4233V1.8H92.8713V5.904H84.8793V27H80.4153ZM101.9 27.36C97.8917 27.36 94.3877 26.016 91.3877 23.328L94.0517 20.16C96.5717 22.344 99.2237 23.436 102.008 23.436C103.376 23.436 104.456 23.148 105.248 22.572C106.064 21.972 106.472 21.18 106.472 20.196C106.472 19.26 106.088 18.516 105.32 17.964C104.552 17.388 103.04 16.836 100.784 16.308C97.8557 15.612 95.7197 14.736 94.3757 13.68C93.0557 12.6 92.3957 10.956 92.3957 8.748C92.3957 6.588 93.1997 4.836 94.8077 3.492C96.4157 2.124 98.4797 1.44 101 1.44C104.456 1.44 107.504 2.496 110.144 4.608L107.768 7.956C105.44 6.228 103.16 5.364 100.928 5.364C99.6557 5.364 98.6477 5.652 97.9037 6.228C97.1837 6.804 96.8237 7.536 96.8237 8.424C96.8237 9.408 97.2197 10.176 98.0117 10.728C98.8277 11.256 100.424 11.808 102.8 12.384C105.584 13.056 107.624 13.956 108.92 15.084C110.24 16.212 110.9 17.796 110.9 19.836C110.9 22.164 110.072 24 108.416 25.344C106.76 26.688 104.588 27.36 101.9 27.36ZM118.473 27V17.064L108.465 1.8H113.685L120.741 12.96L127.869 1.8H132.945L122.937 16.956V27H118.473ZM126.734 27L137.822 1.62H141.926L153.014 27H148.334L145.778 20.916H133.862L131.27 27H126.734ZM135.482 16.992H144.158L139.802 6.912L135.482 16.992Z"/>
</mask>
<path d="M24.732 23.616C22.236 26.16 19.08 27.432 15.264 27.432C11.448 27.432 8.304 26.172 5.832 23.652C3.36 21.132 2.124 18.048 2.124 14.4C2.124 10.8 3.372 7.728 5.868 5.184C8.364 2.64 11.52 1.368 15.336 1.368C19.152 1.368 22.296 2.628 24.768 5.148C27.24 7.668 28.476 10.752 28.476 14.4C28.476 18 27.228 21.072 24.732 23.616ZM9.18 20.772C10.812 22.5 12.864 23.364 15.336 23.364C17.808 23.364 19.836 22.5 21.42 20.772C23.028 19.044 23.832 16.92 23.832 14.4C23.832 11.904 23.016 9.792 21.384 8.064C19.776 6.312 17.736 5.436 15.264 5.436C12.792 5.436 10.752 6.3 9.144 8.028C7.56 9.756 6.768 11.88 6.768 14.4C6.768 16.896 7.572 19.02 9.18 20.772ZM29.8659 27V1.8H39.2619C43.1979 1.8 46.4139 3 48.9099 5.4C51.4059 7.776 52.6539 10.776 52.6539 14.4C52.6539 18 51.3939 21 48.8739 23.4C46.3779 25.8 43.1739 27 39.2619 27H29.8659ZM34.2939 22.968H39.2619C41.8779 22.968 43.9899 22.176 45.5979 20.592C47.2059 18.984 48.0099 16.92 48.0099 14.4C48.0099 11.904 47.2059 9.852 45.5979 8.244C43.9899 6.636 41.8779 5.832 39.2619 5.832H34.2939V22.968ZM54.0661 27V1.8H72.7501V5.76H58.4941V12.312H71.1301V16.272H58.4941V23.04H72.9301V27H54.0661ZM80.4153 27V5.904H72.4233V1.8H92.8713V5.904H84.8793V27H80.4153ZM101.9 27.36C97.8917 27.36 94.3877 26.016 91.3877 23.328L94.0517 20.16C96.5717 22.344 99.2237 23.436 102.008 23.436C103.376 23.436 104.456 23.148 105.248 22.572C106.064 21.972 106.472 21.18 106.472 20.196C106.472 19.26 106.088 18.516 105.32 17.964C104.552 17.388 103.04 16.836 100.784 16.308C97.8557 15.612 95.7197 14.736 94.3757 13.68C93.0557 12.6 92.3957 10.956 92.3957 8.748C92.3957 6.588 93.1997 4.836 94.8077 3.492C96.4157 2.124 98.4797 1.44 101 1.44C104.456 1.44 107.504 2.496 110.144 4.608L107.768 7.956C105.44 6.228 103.16 5.364 100.928 5.364C99.6557 5.364 98.6477 5.652 97.9037 6.228C97.1837 6.804 96.8237 7.536 96.8237 8.424C96.8237 9.408 97.2197 10.176 98.0117 10.728C98.8277 11.256 100.424 11.808 102.8 12.384C105.584 13.056 107.624 13.956 108.92 15.084C110.24 16.212 110.9 17.796 110.9 19.836C110.9 22.164 110.072 24 108.416 25.344C106.76 26.688 104.588 27.36 101.9 27.36ZM118.473 27V17.064L108.465 1.8H113.685L120.741 12.96L127.869 1.8H132.945L122.937 16.956V27H118.473ZM126.734 27L137.822 1.62H141.926L153.014 27H148.334L145.778 20.916H133.862L131.27 27H126.734ZM135.482 16.992H144.158L139.802 6.912L135.482 16.992Z" fill="white"/>
<path d="M24.732 23.616L25.4458 24.3163L25.4458 24.3163L24.732 23.616ZM5.832 23.652L5.11813 24.3523L5.11813 24.3523L5.832 23.652ZM5.868 5.184L5.15419 4.48366L5.15419 4.48366L5.868 5.184ZM24.768 5.148L25.4819 4.44772L25.4819 4.44772L24.768 5.148ZM9.18 20.772L8.44327 21.4482L8.44809 21.4534L8.45299 21.4586L9.18 20.772ZM21.42 20.772L20.6879 20.0907L20.6828 20.0963L21.42 20.772ZM21.384 8.064L20.6473 8.74018L20.6521 8.74544L20.657 8.75062L21.384 8.064ZM9.144 8.028L8.41191 7.34675L8.40685 7.35227L9.144 8.028ZM24.732 23.616L24.0182 22.9157C21.7245 25.2534 18.8326 26.432 15.264 26.432V27.432V28.432C19.3274 28.432 22.7475 27.0666 25.4458 24.3163L24.732 23.616ZM15.264 27.432V26.432C11.6925 26.432 8.81359 25.2635 6.54587 22.9517L5.832 23.652L5.11813 24.3523C7.79441 27.0805 11.2035 28.432 15.264 28.432V27.432ZM5.832 23.652L6.54587 22.9517C4.26398 20.6255 3.124 17.7959 3.124 14.4H2.124H1.124C1.124 18.3001 2.45602 21.6385 5.11813 24.3523L5.832 23.652ZM2.124 14.4H3.124C3.124 11.059 4.27131 8.23927 6.58181 5.88434L5.868 5.184L5.15419 4.48366C2.47269 7.21673 1.124 10.541 1.124 14.4H2.124ZM5.868 5.184L6.58181 5.88434C8.87549 3.54655 11.7674 2.368 15.336 2.368V1.368V0.368C11.2726 0.368 7.85252 1.73344 5.15419 4.48366L5.868 5.184ZM15.336 1.368V2.368C18.9075 2.368 21.7864 3.53653 24.0541 5.84827L24.768 5.148L25.4819 4.44772C22.8056 1.71947 19.3965 0.368 15.336 0.368V1.368ZM24.768 5.148L24.0541 5.84827C26.336 8.17447 27.476 11.0041 27.476 14.4H28.476H29.476C29.476 10.4999 28.144 7.16152 25.4819 4.44772L24.768 5.148ZM28.476 14.4H27.476C27.476 17.741 26.3287 20.5607 24.0182 22.9157L24.732 23.616L25.4458 24.3163C28.1273 21.5833 29.476 18.259 29.476 14.4H28.476ZM9.18 20.772L8.45299 21.4586C10.2822 23.3955 12.6013 24.364 15.336 24.364V23.364V22.364C13.1267 22.364 11.3418 21.6045 9.90701 20.0854L9.18 20.772ZM15.336 23.364V24.364C18.0711 24.364 20.3724 23.3947 22.1572 21.4477L21.42 20.772L20.6828 20.0963C19.2996 21.6053 17.5449 22.364 15.336 22.364V23.364ZM21.42 20.772L22.1521 21.4532C23.9446 19.5269 24.832 17.1541 24.832 14.4H23.832H22.832C22.832 16.6859 22.1114 18.5611 20.6879 20.0908L21.42 20.772ZM23.832 14.4H24.832C24.832 11.6628 23.9278 9.30102 22.111 7.37738L21.384 8.064L20.657 8.75062C22.1042 10.283 22.832 12.1452 22.832 14.4H23.832ZM21.384 8.064L22.1207 7.38782C20.315 5.42042 18.0036 4.436 15.264 4.436V5.436V6.436C17.4684 6.436 19.237 7.20358 20.6473 8.74018L21.384 8.064ZM15.264 5.436V4.436C12.5291 4.436 10.219 5.4049 8.41193 7.34677L9.144 8.028L9.87607 8.70923C11.285 7.1951 13.0549 6.436 15.264 6.436V5.436ZM9.144 8.028L8.40685 7.35227C6.64044 9.27927 5.768 11.6503 5.768 14.4H6.768H7.768C7.768 12.1097 8.47956 10.2327 9.88115 8.70372L9.144 8.028ZM6.768 14.4H5.768C5.768 17.1328 6.65694 19.5019 8.44327 21.4482L9.18 20.772L9.91674 20.0958C8.48706 18.5381 7.768 16.6592 7.768 14.4H6.768ZM29.8659 27H28.8659V28H29.8659V27ZM29.8659 1.8V0.799998H28.8659V1.8H29.8659ZM48.9099 5.4L48.2168 6.12084L48.2205 6.1243L48.9099 5.4ZM48.8739 23.4L48.1843 22.6759L48.1808 22.6792L48.8739 23.4ZM34.2939 22.968H33.2939V23.968H34.2939V22.968ZM45.5979 20.592L46.2997 21.3044L46.305 21.2991L45.5979 20.592ZM45.5979 8.244L46.305 7.53689L45.5979 8.244ZM34.2939 5.832V4.832H33.2939V5.832H34.2939ZM29.8659 27H30.8659V1.8H29.8659H28.8659V27H29.8659ZM29.8659 1.8V2.8H39.2619V1.8V0.799998H29.8659V1.8ZM39.2619 1.8V2.8C42.9777 2.8 45.933 3.92479 48.2168 6.12083L48.9099 5.4L49.603 4.67917C46.8949 2.0752 43.4182 0.799998 39.2619 0.799998V1.8ZM48.9099 5.4L48.2205 6.1243C50.507 8.30089 51.6539 11.0339 51.6539 14.4H52.6539H53.6539C53.6539 10.5181 52.3049 7.2511 49.5994 4.6757L48.9099 5.4ZM52.6539 14.4H51.6539C51.6539 17.7369 50.4985 20.4718 48.1843 22.6759L48.8739 23.4L49.5636 24.1241C52.2893 21.5282 53.6539 18.2631 53.6539 14.4H52.6539ZM48.8739 23.4L48.1808 22.6792C45.8958 24.8763 42.9518 26 39.2619 26V27V28C43.396 28 46.8601 26.7237 49.567 24.1208L48.8739 23.4ZM39.2619 27V26H29.8659V27V28H39.2619V27ZM34.2939 22.968V23.968H39.2619V22.968V21.968H34.2939V22.968ZM39.2619 22.968V23.968C42.0955 23.968 44.4748 23.1021 46.2997 21.3044L45.5979 20.592L44.8962 19.8796C43.5051 21.2499 41.6604 21.968 39.2619 21.968V22.968ZM45.5979 20.592L46.305 21.2991C48.1217 19.4824 49.0099 17.1538 49.0099 14.4H48.0099H47.0099C47.0099 16.6862 46.2902 18.4856 44.8908 19.8849L45.5979 20.592ZM48.0099 14.4H49.0099C49.0099 11.6672 48.1198 9.35164 46.305 7.53689L45.5979 8.244L44.8908 8.95111C46.2921 10.3524 47.0099 12.1408 47.0099 14.4H48.0099ZM45.5979 8.244L46.305 7.53689C44.481 5.71284 42.0999 4.832 39.2619 4.832V5.832V6.832C41.656 6.832 43.4989 7.55916 44.8908 8.95111L45.5979 8.244ZM39.2619 5.832V4.832H34.2939V5.832V6.832H39.2619V5.832ZM34.2939 5.832H33.2939V22.968H34.2939H35.2939V5.832H34.2939ZM54.0661 27H53.0661V28H54.0661V27ZM54.0661 1.8V0.799998H53.0661V1.8H54.0661ZM72.7501 1.8H73.7501V0.799998H72.7501V1.8ZM72.7501 5.76V6.76H73.7501V5.76H72.7501ZM58.4941 5.76V4.76H57.4941V5.76H58.4941ZM58.4941 12.312H57.4941V13.312H58.4941V12.312ZM71.1301 12.312H72.1301V11.312H71.1301V12.312ZM71.1301 16.272V17.272H72.1301V16.272H71.1301ZM58.4941 16.272V15.272H57.4941V16.272H58.4941ZM58.4941 23.04H57.4941V24.04H58.4941V23.04ZM72.9301 23.04H73.9301V22.04H72.9301V23.04ZM72.9301 27V28H73.9301V27H72.9301ZM54.0661 27H55.0661V1.8H54.0661H53.0661V27H54.0661ZM54.0661 1.8V2.8H72.7501V1.8V0.799998H54.0661V1.8ZM72.7501 1.8H71.7501V5.76H72.7501H73.7501V1.8H72.7501ZM72.7501 5.76V4.76H58.4941V5.76V6.76H72.7501V5.76ZM58.4941 5.76H57.4941V12.312H58.4941H59.4941V5.76H58.4941ZM58.4941 12.312V13.312H71.1301V12.312V11.312H58.4941V12.312ZM71.1301 12.312H70.1301V16.272H71.1301H72.1301V12.312H71.1301ZM71.1301 16.272V15.272H58.4941V16.272V17.272H71.1301V16.272ZM58.4941 16.272H57.4941V23.04H58.4941H59.4941V16.272H58.4941ZM58.4941 23.04V24.04H72.9301V23.04V22.04H58.4941V23.04ZM72.9301 23.04H71.9301V27H72.9301H73.9301V23.04H72.9301ZM72.9301 27V26H54.0661V27V28H72.9301V27ZM80.4153 27H79.4153V28H80.4153V27ZM80.4153 5.904H81.4153V4.904H80.4153V5.904ZM72.4233 5.904H71.4233V6.904H72.4233V5.904ZM72.4233 1.8V0.799998H71.4233V1.8H72.4233ZM92.8713 1.8H93.8713V0.799998H92.8713V1.8ZM92.8713 5.904V6.904H93.8713V5.904H92.8713ZM84.8793 5.904V4.904H83.8793V5.904H84.8793ZM84.8793 27V28H85.8793V27H84.8793ZM80.4153 27H81.4153V5.904H80.4153H79.4153V27H80.4153ZM80.4153 5.904V4.904H72.4233V5.904V6.904H80.4153V5.904ZM72.4233 5.904H73.4233V1.8H72.4233H71.4233V5.904H72.4233ZM72.4233 1.8V2.8H92.8713V1.8V0.799998H72.4233V1.8ZM92.8713 1.8H91.8713V5.904H92.8713H93.8713V1.8H92.8713ZM92.8713 5.904V4.904H84.8793V5.904V6.904H92.8713V5.904ZM84.8793 5.904H83.8793V27H84.8793H85.8793V5.904H84.8793ZM84.8793 27V26H80.4153V27V28H84.8793V27ZM91.3877 23.328L90.6223 22.6844L89.9986 23.4261L90.7204 24.0728L91.3877 23.328ZM94.0517 20.16L94.7066 19.4043L93.9396 18.7395L93.2863 19.5164L94.0517 20.16ZM105.248 22.572L105.836 23.3807L105.84 23.3777L105.248 22.572ZM105.32 17.964L104.72 18.764L104.728 18.7701L104.736 18.776L105.32 17.964ZM100.784 16.308L100.552 17.2809L100.556 17.2817L100.784 16.308ZM94.3757 13.68L93.7425 14.454L93.7501 14.4602L93.7579 14.4663L94.3757 13.68ZM94.8077 3.492L95.449 4.25931L95.4557 4.25366L94.8077 3.492ZM110.144 4.608L110.959 5.18675L111.506 4.41687L110.768 3.82713L110.144 4.608ZM107.768 7.956L107.172 8.75897L107.992 9.36785L108.583 8.53475L107.768 7.956ZM97.9037 6.228L97.2915 5.43728L97.2852 5.44215L97.279 5.44713L97.9037 6.228ZM98.0117 10.728L97.4399 11.5484L97.454 11.5582L97.4684 11.5676L98.0117 10.728ZM102.8 12.384L102.564 13.3558L102.565 13.3561L102.8 12.384ZM108.92 15.084L108.263 15.8383L108.27 15.8442L108.92 15.084ZM108.416 25.344L107.786 24.5675L107.786 24.5675L108.416 25.344ZM101.9 27.36V26.36C98.1393 26.36 94.8726 25.1078 92.055 22.5832L91.3877 23.328L90.7204 24.0728C93.9028 26.9242 97.6441 28.36 101.9 28.36V27.36ZM91.3877 23.328L92.1531 23.9716L94.8171 20.8036L94.0517 20.16L93.2863 19.5164L90.6223 22.6844L91.3877 23.328ZM94.0517 20.16L93.3968 20.9157C96.0609 23.2246 98.9375 24.436 102.008 24.436V23.436V22.436C99.5099 22.436 97.0825 21.4634 94.7066 19.4043L94.0517 20.16ZM102.008 23.436V24.436C103.505 24.436 104.817 24.1217 105.836 23.3807L105.248 22.572L104.66 21.7633C104.094 22.1743 103.246 22.436 102.008 22.436V23.436ZM105.248 22.572L105.84 23.3777C106.903 22.5957 107.472 21.5089 107.472 20.196H106.472H105.472C105.472 20.8511 105.224 21.3483 104.655 21.7663L105.248 22.572ZM106.472 20.196H107.472C107.472 18.9341 106.929 17.8895 105.903 17.152L105.32 17.964L104.736 18.776C105.246 19.1425 105.472 19.5859 105.472 20.196H106.472ZM105.32 17.964L105.92 17.164C104.966 16.4489 103.264 15.8614 101.012 15.3343L100.784 16.308L100.556 17.2817C102.816 17.8106 104.137 18.3271 104.72 18.764L105.32 17.964ZM100.784 16.308L101.015 15.3351C98.1365 14.6509 96.1677 13.8163 94.9935 12.8937L94.3757 13.68L93.7579 14.4663C95.2716 15.6557 97.5749 16.5731 100.552 17.2809L100.784 16.308ZM94.3757 13.68L95.0089 12.906C93.986 12.0691 93.3957 10.7514 93.3957 8.748H92.3957H91.3957C91.3957 11.1606 92.1254 13.1309 93.7425 14.454L94.3757 13.68ZM92.3957 8.748H93.3957C93.3957 6.87379 94.0762 5.40667 95.449 4.25928L94.8077 3.492L94.1664 2.72472C92.3231 4.26533 91.3957 6.30221 91.3957 8.748H92.3957ZM94.8077 3.492L95.4557 4.25366C96.8493 3.06807 98.669 2.44 101 2.44V1.44V0.439999C98.2904 0.439999 95.9821 1.17993 94.1597 2.73034L94.8077 3.492ZM101 1.44V2.44C104.234 2.44 107.061 3.4221 109.519 5.38887L110.144 4.608L110.768 3.82713C107.947 1.56989 104.677 0.439999 101 0.439999V1.44ZM110.144 4.608L109.328 4.02925L106.952 7.37725L107.768 7.956L108.583 8.53475L110.959 5.18675L110.144 4.608ZM107.768 7.956L108.364 7.15303C105.915 5.33536 103.431 4.364 100.928 4.364V5.364V6.364C102.889 6.364 104.964 7.12064 107.172 8.75897L107.768 7.956ZM100.928 5.364V4.364C99.5114 4.364 98.2634 4.68484 97.2915 5.43728L97.9037 6.228L98.5159 7.01872C99.032 6.61916 99.7999 6.364 100.928 6.364V5.364ZM97.9037 6.228L97.279 5.44713C96.3323 6.20447 95.8237 7.21897 95.8237 8.424H96.8237H97.8237C97.8237 7.85303 98.0351 7.40353 98.5284 7.00887L97.9037 6.228ZM96.8237 8.424H95.8237C95.8237 9.7275 96.3735 10.8051 97.4399 11.5484L98.0117 10.728L98.5835 9.9076C98.0659 9.54686 97.8237 9.0885 97.8237 8.424H96.8237ZM98.0117 10.728L97.4684 11.5676C98.4439 12.1987 100.195 12.7816 102.564 13.3558L102.8 12.384L103.035 11.4121C100.652 10.8344 99.2115 10.3133 98.5549 9.88843L98.0117 10.728ZM102.8 12.384L102.565 13.3561C105.285 14.0125 107.144 14.8638 108.263 15.8383L108.92 15.084L109.576 14.3297C108.104 13.0482 105.883 12.0995 103.034 11.4119L102.8 12.384ZM108.92 15.084L108.27 15.8442C109.328 16.7483 109.9 18.0319 109.9 19.836H110.9H111.9C111.9 17.5601 111.151 15.6757 109.569 14.3238L108.92 15.084ZM110.9 19.836H109.9C109.9 21.8941 109.184 23.4324 107.786 24.5675L108.416 25.344L109.046 26.1205C110.959 24.5676 111.9 22.4339 111.9 19.836H110.9ZM108.416 25.344L107.786 24.5675C106.35 25.7326 104.419 26.36 101.9 26.36V27.36V28.36C104.756 28.36 107.169 27.6434 109.046 26.1205L108.416 25.344ZM118.473 27H117.473V28H118.473V27ZM118.473 17.064H119.473V16.7654L119.309 16.5157L118.473 17.064ZM108.465 1.8V0.799998H106.614L107.629 2.34831L108.465 1.8ZM113.685 1.8L114.53 1.2656L114.236 0.799998H113.685V1.8ZM120.741 12.96L119.896 13.4944L120.737 14.8245L121.584 13.4983L120.741 12.96ZM127.869 1.8V0.799998H127.321L127.026 1.26172L127.869 1.8ZM132.945 1.8L133.78 2.35103L134.804 0.799998H132.945V1.8ZM122.937 16.956L122.103 16.405L121.937 16.6556V16.956H122.937ZM122.937 27V28H123.937V27H122.937ZM118.473 27H119.473V17.064H118.473H117.473V27H118.473ZM118.473 17.064L119.309 16.5157L109.301 1.25169L108.465 1.8L107.629 2.34831L117.637 17.6123L118.473 17.064ZM108.465 1.8V2.8H113.685V1.8V0.799998H108.465V1.8ZM113.685 1.8L112.84 2.3344L119.896 13.4944L120.741 12.96L121.586 12.4256L114.53 1.2656L113.685 1.8ZM120.741 12.96L121.584 13.4983L128.712 2.33828L127.869 1.8L127.026 1.26172L119.898 12.4217L120.741 12.96ZM127.869 1.8V2.8H132.945V1.8V0.799998H127.869V1.8ZM132.945 1.8L132.111 1.24896L122.103 16.405L122.937 16.956L123.772 17.507L133.78 2.35103L132.945 1.8ZM122.937 16.956H121.937V27H122.937H123.937V16.956H122.937ZM122.937 27V26H118.473V27V28H122.937V27ZM126.734 27L125.818 26.5997L125.206 28H126.734V27ZM137.822 1.62V0.619998H137.168L136.906 1.21966L137.822 1.62ZM141.926 1.62L142.842 1.21966L142.58 0.619998H141.926V1.62ZM153.014 27V28H154.542L153.93 26.5997L153.014 27ZM148.334 27L147.412 27.3873L147.67 28H148.334V27ZM145.778 20.916L146.7 20.5287L146.443 19.916H145.778V20.916ZM133.862 20.916V19.916H133.201L132.942 20.5241L133.862 20.916ZM131.27 27V28H131.931L132.19 27.3919L131.27 27ZM135.482 16.992L134.563 16.5981L133.966 17.992H135.482V16.992ZM144.158 16.992V17.992H145.68L145.076 16.5953L144.158 16.992ZM139.802 6.912L140.72 6.51531L139.798 4.3823L138.883 6.51808L139.802 6.912ZM126.734 27L127.65 27.4003L138.738 2.02034L137.822 1.62L136.906 1.21966L125.818 26.5997L126.734 27ZM137.822 1.62V2.62H141.926V1.62V0.619998H137.822V1.62ZM141.926 1.62L141.01 2.02034L152.098 27.4003L153.014 27L153.93 26.5997L142.842 1.21966L141.926 1.62ZM153.014 27V26H148.334V27V28H153.014V27ZM148.334 27L149.256 26.6127L146.7 20.5287L145.778 20.916L144.856 21.3033L147.412 27.3873L148.334 27ZM145.778 20.916V19.916H133.862V20.916V21.916H145.778V20.916ZM133.862 20.916L132.942 20.5241L130.35 26.6081L131.27 27L132.19 27.3919L134.782 21.3079L133.862 20.916ZM131.27 27V26H126.734V27V28H131.27V27ZM135.482 16.992V17.992H144.158V16.992V15.992H135.482V16.992ZM144.158 16.992L145.076 16.5953L140.72 6.51531L139.802 6.912L138.884 7.30869L143.24 17.3887L144.158 16.992ZM139.802 6.912L138.883 6.51808L134.563 16.5981L135.482 16.992L136.401 17.3859L140.721 7.30592L139.802 6.912Z" fill="black" mask="url(#path-1-outside-1_134_94)"/>
</svg>
